<?xml version="1.0" standalone="no"?>
<!DOCTYPE svg PUBLIC "-//W3C//DTD SVG 20010904//EN"
 "http://www.w3.org/TR/2001/REC-SVG-20010904/DTD/svg10.dtd">
<svg version="1.0" xmlns="http://www.w3.org/2000/svg"
 width="696.000000pt" height="696.000000pt" viewBox="0 0 696.000000 696.000000"
 preserveAspectRatio="xMidYMid meet">
<metadata>
Created by potrace 1.14, written by Peter Selinger 2001-2017
</metadata>
<g transform="translate(0.000000,696.000000) scale(0.100000,-0.100000)"
fill="#000000" stroke="none">
<path d="M401 4473 c1 -2319 2 -2494 18 -2583 21 -111 33 -157 67 -260 29 -85
153 -340 166 -340 4 0 8 -5 8 -10 0 -6 12 -28 27 -49 16 -21 35 -49 43 -61 8
-12 22 -30 30 -40 8 -9 31 -37 50 -60 56 -68 209 -222 286 -287 89 -75 221
-173 233 -173 5 0 11 -4 13 -8 2 -4 39 -30 83 -57 44 -26 91 -55 105 -63 14
-9 27 -15 29 -13 2 1 7 -1 10 -6 7 -11 201 -106 317 -156 126 -55 464 -166
546 -181 15 -2 31 -7 35 -9 5 -3 26 -8 48 -11 22 -4 47 -8 55 -11 8 -2 26 -6
40 -9 14 -3 35 -7 46 -10 12 -2 39 -7 60 -10 22 -4 66 -11 99 -16 240 -38 336
-44 645 -45 234 0 412 7 505 21 17 2 46 6 65 8 19 2 51 7 70 10 19 3 51 8 70
11 19 2 44 6 55 8 11 3 36 7 55 11 19 3 46 8 60 11 14 3 37 7 52 10 41 8 148
34 203 50 28 9 59 17 70 19 61 12 344 115 460 167 28 12 52 23 55 24 12 3 185
90 190 95 3 3 21 14 40 24 97 48 330 203 330 219 0 6 3 8 6 4 5 -5 20 5 69 48
13 11 43 36 66 55 86 70 279 270 279 290 0 5 4 10 8 10 5 0 26 24 46 54 21 30
46 65 57 77 10 12 19 28 19 35 0 7 4 14 9 16 23 9 142 252 175 358 10 30 20
62 23 70 12 31 22 67 27 105 2 17 5 30 6 30 2 0 4 9 5 20 1 11 6 36 11 55 4
19 10 1161 11 2538 l3 2503 -167 -6 c-93 -3 -184 -8 -203 -10 -19 -2 -62 -6
-95 -9 -76 -7 -187 -23 -295 -43 -47 -8 -92 -16 -100 -17 -30 -5 -135 -28
-150 -34 -17 -6 -24 -8 -60 -16 -122 -27 -393 -117 -510 -169 -265 -117 -536
-268 -670 -374 -176 -139 -290 -245 -388 -358 -23 -28 -48 -57 -56 -65 -7 -8
-31 -40 -52 -70 -21 -30 -41 -57 -44 -60 -10 -10 -70 -112 -70 -120 0 -5 -3
-10 -7 -12 -9 -4 -87 -162 -98 -198 -4 -14 -11 -29 -15 -35 -4 -5 -11 -26 -15
-45 -4 -19 -12 -41 -17 -47 -6 -7 -7 -13 -3 -13 4 0 2 -7 -5 -15 -7 -8 -10
-15 -7 -15 3 0 1 -15 -4 -32 -19 -62 -39 -177 -41 -234 -1 -37 -14 -47 -14
-11 -1 30 -13 113 -24 167 -6 25 -13 56 -16 70 -18 84 -88 270 -129 344 -12
23 -31 57 -42 76 -117 218 -357 483 -597 660 -34 25 -62 48 -64 52 -2 5 -9 8
-16 8 -7 0 -21 9 -33 19 -11 10 -33 26 -49 35 -32 18 -62 36 -78 49 -26 18
-126 75 -126 71 0 -3 -12 3 -27 13 -60 42 -318 155 -468 207 -44 16 -87 31
-95 34 -8 3 -18 6 -22 7 -5 2 -9 3 -10 5 -2 1 -10 3 -18 5 -8 1 -42 11 -75 21
-33 10 -64 19 -70 20 -5 1 -30 7 -55 14 -63 16 -171 41 -195 45 -11 2 -58 10
-105 18 -144 26 -192 33 -390 53 -19 1 -110 6 -203 9 l-167 7 1 -2489z"/>
</g>
</svg>
